<svg width="25" height="25" viewBox="0 0 25 25" fill="none" xmlns="http://www.w3.org/2000/svg">
<path d="M21.875 21.8752L17.351 17.3513M17.351 17.3513C18.1249 16.5774 18.7387 15.6587 19.1575 14.6477C19.5763 13.6366 19.7919 12.5529 19.7919 11.4585C19.7919 10.3642 19.5763 9.28051 19.1575 8.26944C18.7387 7.25836 18.1249 6.33968 17.351 5.56584C16.5772 4.792 15.6585 4.17815 14.6474 3.75935C13.6363 3.34055 12.5527 3.125 11.4583 3.125C10.3639 3.125 9.28027 3.34055 8.26919 3.75935C7.25812 4.17815 6.33944 4.792 5.5656 5.56584C4.00275 7.12868 3.12476 9.24835 3.12476 11.4585C3.12476 13.6687 4.00275 15.7884 5.5656 17.3513C7.12844 18.9141 9.24811 19.7921 11.4583 19.7921C13.6685 19.7921 15.7882 18.9141 17.351 17.3513Z" stroke="white" stroke-width="1.33333" stroke-linecap="round" stroke-linejoin="round"/>
</svg>
